<?xml version="1.0" encoding="UTF-8" standalone="no"?>
<!-- Generator: Adobe Illustrator 18.1.1, SVG Export Plug-In . SVG Version: 6.00 Build 0)  -->
<svg id="Layer_1" xmlns="http://www.w3.org/2000/svg" xml:space="preserve" viewBox="0 0 650 160" version="1.1" y="0px" x="0px" xmlns:xlink="http://www.w3.org/1999/xlink" enable-background="new 0 0 650 160">
<path d="m204 50.1c0.7 0 1.1 0.1 1.3 0.3 0.1 0.2 0.2 0.5 0.2 0.7 0 0.3-0.1 0.5-0.4 0.7-0.2 0.2-0.8 0.3-1.8 0.3-1.6 0-2.9 0.1-4 0.4-1.1 0.2-1.9 0.6-2.5 1.2s-1 1.3-1.2 2.2-0.4 2-0.4 3.4v43.1c0 2.5 0.4 4.2 1.2 5.3s2.4 1.6 4.7 1.6h7.7c1.8 0 3.5-0.1 5.2-0.4s3.4-0.9 5.1-1.8c1.5-0.8 3-2 4.3-3.5s2.5-3 3.5-4.5 1.8-2.8 2.4-3.9 0.9-1.7 1-1.9c0.3-0.6 0.6-1 0.8-1.2 0.3-0.2 0.5-0.3 0.8-0.3 0.6 0 1 0.3 1 0.9 0 0.2 0 0.5-0.1 0.7s-0.2 0.6-0.4 1.1l-3 10.1c-0.3 1.1-0.5 2.1-0.8 3-0.2 0.9-0.4 1.7-0.5 2.3s-0.3 1-0.5 1.1-0.8 0.2-1.6 0.2h-35.3c-3.3 0-5.8 0-7.4 0.1s-2.8 0.1-3.6 0.1-1.2-0.1-1.4-0.3-0.3-0.5-0.3-0.7c0-0.3 0.1-0.5 0.4-0.8 0.3-0.2 0.9-0.3 1.7-0.3 1.9 0 3.3-0.4 4.4-1.1 1.1-0.8 1.6-2.2 1.6-4.4v-46c0-2.2-0.5-3.7-1.6-4.5-0.5-0.3-1.1-0.7-2.4-0.7h-31.2v51.3c0 2.3 0.6 3.8 1.9 4.5 1.2 0.7 3.1 1.1 5.7 1.1 0.8 0 1.4 0.1 1.7 0.4s0.4 0.5 0.4 0.8c0 0.2-0.1 0.5-0.2 0.7s-0.6 0.4-1.4 0.4-2.2 0-4.4-0.1-4.9-0.1-8.2-0.1-6 0-8.2 0.1c-2.1 0.1-3.6 0.1-4.4 0.1-0.7 0-1.1-0.1-1.3-0.4-0.2-0.2-0.3-0.5-0.3-0.7 0-0.3 0.1-0.6 0.4-0.8 0.3-0.3 0.9-0.4 1.7-0.4 0.9 0 1.8 0 2.7-0.1s1.7-0.3 2.4-0.7 1.3-0.9 1.8-1.5c0.5-0.7 0.7-1.6 0.7-2.8v-51.8h-7.6c-3 0-5.5 0.5-7.6 1.4s-3.8 2-5.1 3.4c-1.4 1.3-2.5 2.7-3.3 4.1-0.9 1.4-1.6 2.7-2.2 3.7-0.2 0.4-0.4 0.6-0.6 0.8-0.1 0.2-0.4 0.3-0.7 0.3-0.6 0-0.9-0.3-0.9-0.9 0-0.2 0.1-0.5 0.2-1.1s0.3-1.2 0.5-2 0.4-1.6 0.6-2.5 0.4-1.8 0.6-2.6c0.1-0.6 0.3-1.3 0.4-2 0.2-0.8 0.3-1.5 0.5-2.2s0.3-1.4 0.4-1.9c0.1-0.6 0.2-0.9 0.2-1.1 0.1-0.4 0.2-0.7 0.4-1 0.1-0.2 0.4-0.4 0.8-0.4 0.5 0 0.9 0.1 1.1 0.3 0.3 0.2 0.8 0.4 1.6 0.6s2 0.4 3.6 0.6 4 0.3 7.2 0.3m181.1 0c-0.2-0.2-0.6-0.4-1.2-0.4h-1.4-2-2.2-2.2-6.5-2.5c-0.7 0-1.1 0.1-1.2 0.3s-0.2 0.4-0.2 0.7 0.1 0.6 0.4 0.8 0.8 0.3 1.5 0.3c1.4 0 2.6 0.4 3.6 1.2s1.5 2.1 1.5 3.9c0 1.2-0.2 2.4-0.5 3.6s-0.7 2.5-1.2 3.8l-11.6 34.4-14.4-37.1c-0.5-1.2-0.9-2.2-1.1-3.2-0.3-1-0.4-1.9-0.4-2.8 0-1.5 0.6-2.5 1.8-3s2.8-0.7 4.6-0.7c0.6 0 1-0.1 1.3-0.3s0.4-0.5 0.4-0.7c0-0.7-0.4-1.1-1.3-1.1h-1.4-2.3-3.6-5.3-5.1-3.1-1.9-1.4c-0.5 0-0.9 0.1-1 0.4-0.1 0.2-0.2 0.5-0.2 0.8 0 0.2 0.1 0.4 0.4 0.6 0.2 0.2 0.7 0.3 1.3 0.3 2.2 0 3.9 0.5 5 1.5s2 2.4 2.7 4.3l3.2 8.4-13.3 32.8-14.5-37.3c-0.3-0.8-0.6-1.7-1-2.9-0.4-1.1-0.6-2.2-0.6-3.2 0-2.4 1.7-3.6 5.1-3.6 0.5 0 0.9-0.1 1.2-0.3s0.4-0.5 0.4-0.7c0-0.7-0.4-1.1-1.3-1.1h-1.2-1.9-3.1-5.1-5-3.2-2-1.2c-0.5 0-0.9 0.1-1 0.3s-0.2 0.5-0.2 0.7 0.1 0.4 0.3 0.6 0.6 0.4 1.2 0.4c1.9 0.1 3.5 0.7 4.9 1.6 1.3 1 2.4 2.4 3.1 4.2l20.6 53.5c0.3 0.8 0.5 1.3 0.7 1.5s0.4 0.4 0.7 0.4 0.5-0.1 0.7-0.4c0.2-0.2 0.4-0.8 0.8-1.8l16.2-40.9 16.6 41.2c0.3 0.8 0.5 1.3 0.7 1.5 0.1 0.2 0.4 0.4 0.7 0.4s0.6-0.1 0.8-0.3 0.5-0.8 0.8-1.8l16.6-49.2c0.6-1.8 1.2-3.3 2-4.5 0.7-1.2 1.5-2.2 2.3-3 0.8-0.7 1.6-1.3 2.4-1.7s1.5-0.6 2.2-0.8c1.1-0.2 1.7-0.5 1.7-1.1-0.3 0-0.4-0.2-0.6-0.5z" fill="#393536"/>
<path d="m363.7 88.4c-0.9-1.7-2.1-3.2-3.5-4.3-1.5-1.2-3.1-2.2-5-2.9-1.9-0.8-3.8-1.5-5.8-2.1s-3.9-1.3-5.8-2-3.5-1.5-5-2.4c-1.5-1-2.7-2.2-3.5-3.5-0.9-1.4-1.3-3.1-1.3-5.2 0-1.6 0.3-3.2 0.9-4.6 0.6-1.5 1.5-2.8 2.7-3.9s2.6-2 4.3-2.6 3.7-1 6-1c4.2 0 8.1 0.8 11.6 2.2 0.2 5 0.4 7.8 0.4 8.3 0.1 1.4 0.7 2.1 1.9 2.1h2.1v-12.9c-5.6-2.4-10.9-3.6-16.1-3.6-2.9 0-5.4 0.4-7.7 1.4-2.3 0.9-4.1 2.1-5.7 3.6-1.5 1.5-2.7 3.2-3.5 5.1s-1.2 3.9-1.2 6c0 2.7 0.4 4.9 1.3 6.7s2.1 3.3 3.5 4.4c1.5 1.2 3.1 2.2 5 2.9 1.9 0.8 3.8 1.4 5.8 2.1 1.9 0.6 3.9 1.2 5.8 1.9 1.9 0.6 3.5 1.4 5 2.4s2.6 2.1 3.5 3.6c0.9 1.4 1.3 3.2 1.3 5.4 0 2-0.4 3.9-1.1 5.7s-1.7 3.3-3.1 4.6c-1.3 1.3-3 2.3-4.9 3.1s-4.1 1.1-6.6 1.1c-4.9 0-9-0.8-12.4-2.4-0.1-1.2-0.1-2.5-0.2-3.9s-0.1-2.6-0.2-3.6c0-0.9-0.1-1.5-0.1-1.6-0.1-1.4-0.7-2.1-1.9-2.1h-2.1v14c5.4 2.3 11 3.4 16.8 3.4 3.2 0 6-0.5 8.5-1.5s4.5-2.3 6.2-4 3-3.7 3.9-6 1.3-4.8 1.3-7.4c0.3-2.6-0.2-4.7-1.1-6.5z" fill="#918F8F"/>
<path d="m390.2 110.3c-2.6 0-4.9-0.4-6.8-1.3s-3.6-2.2-4.9-3.9-2.3-3.7-3-6.1-1-5-1-7.9 0.3-5.6 1-7.9c0.7-2.4 1.6-4.4 3-6.1 1.3-1.7 2.9-3 4.9-3.9s4.2-1.4 6.8-1.4 4.9 0.5 6.8 1.4c2 0.9 3.6 2.2 4.9 3.9s2.3 3.7 2.9 6.1 1 5 1 7.9-0.3 5.6-1 7.9c-0.7 2.4-1.6 4.4-2.9 6.1s-2.9 3-4.9 3.9c-1.9 0.9-4.2 1.3-6.8 1.3zm0-41.8c-3.1 0-6 0.5-8.4 1.6-2.5 1.1-4.6 2.6-6.3 4.6s-3 4.3-3.9 7.1-1.3 5.9-1.3 9.3 0.5 6.5 1.3 9.3c0.9 2.8 2.2 5.1 3.9 7.1s3.8 3.5 6.3 4.5 5.3 1.6 8.4 1.6 6-0.5 8.4-1.6c2.5-1.1 4.6-2.6 6.3-4.5 1.7-2 3-4.3 3.9-7.1s1.3-5.9 1.3-9.3-0.4-6.5-1.3-9.3-2.2-5.1-3.9-7.1-3.8-3.5-6.3-4.6c-2.4-1-5.2-1.6-8.4-1.6z" fill="#918F8F"/>
<path d="m427.8 109.7h-0.5-0.7-1.3c-0.6 0-1.3-0.1-2.1-0.1v-60.6h-10.6v1.8c0 1 0.6 1.5 1.7 1.6h0.5 0.7c0.3 0 0.7 0 1.3 0.1 0.6 0 1.3 0.1 2.1 0.1v57.1c-1 0-1.9 0.1-2.6 0.1s-1.2 0-1.4 0.1h-0.6c-1.2 0.1-1.7 0.6-1.7 1.5v1.8h17v-1.8c-0.1-1.1-0.7-1.6-1.8-1.7z" fill="#918F8F"/>
<path d="m448.9 109.7h-0.5-0.7-1.3c-0.6 0-1.3-0.1-2.1-0.1v-40.4h-10.6v1.8c0 1 0.6 1.5 1.7 1.6h0.5 0.7 1.3c0.6 0 1.3 0.1 2.1 0.1v36.8c-1 0-1.9 0.1-2.6 0.1s-1.2 0-1.4 0.1h-0.6c-1.2 0.1-1.7 0.6-1.7 1.6v1.8h17v-1.8c0-1-0.6-1.5-1.8-1.6zm-9.4-52.9c0.4 0.4 0.8 0.6 1.2 0.8 0.5 0.2 1 0.3 1.5 0.3s1-0.1 1.5-0.3 0.9-0.5 1.2-0.8c0.4-0.4 0.6-0.8 0.9-1.2 0.2-0.5 0.3-1 0.3-1.5s-0.1-1-0.3-1.5c-0.2-0.5-0.5-0.9-0.9-1.3-0.3-0.3-0.8-0.6-1.2-0.8-0.5-0.2-1-0.3-1.5-0.3s-1 0.1-1.5 0.3-0.9 0.5-1.2 0.8c-0.3 0.4-0.6 0.8-0.8 1.3s-0.3 1-0.3 1.5 0.1 1 0.3 1.5c0.2 0.4 0.5 0.8 0.8 1.2z" fill="#918F8F"/>
<path d="m486.8 106c-0.2-0.3-0.5-0.4-0.9-0.4-0.3 0-0.7 0.2-1.3 0.7-0.5 0.5-1.3 1-2.2 1.6s-2.1 1.1-3.5 1.6-3.2 0.7-5.3 0.7c-2.3 0-4.4-0.4-6.3-1.3s-3.5-2.1-4.8-3.7-2.3-3.6-3.1-6c-0.7-2.4-1.1-5.1-1.1-8.2 0-3 0.4-5.6 1.1-8s1.7-4.4 3.1-6.1c1.3-1.7 3-2.9 4.9-3.8 2-0.9 4.2-1.4 6.7-1.4 2.2 0 4.7 0.5 7.5 1.5 0.1 1.2 0.1 2.3 0.2 3.3s0.2 1.9 0.2 2.5c0.1 0.6 0.1 1 0.1 1.1 0.1 1.4 0.7 2.1 1.9 2.1h2.1v-10.9l-2.3-0.7c-1.5-0.5-3.3-0.9-5.4-1.4s-3.6-0.7-4.6-0.7c-3.2 0-6 0.5-8.4 1.7-2.5 1.1-4.5 2.7-6.2 4.6-1.7 2-3 4.4-3.9 7.1-0.9 2.8-1.3 5.8-1.3 9.2 0 3.6 0.5 6.7 1.4 9.5s2.2 5.1 3.9 7.1c1.7 1.9 3.6 3.4 5.9 4.4s4.9 1.5 7.6 1.5c1.6 0 3.2-0.2 4.7-0.5s2.9-0.7 4.2-1.3 2.5-1.2 3.5-2 1.9-1.6 2.6-2.5l-1-1.3z" fill="#918F8F"/>
<path d="m507.2 109.7h-0.5-0.7-1.3c-0.6 0-1.3-0.1-2.1-0.1v-40.4h-10.6v1.8c0 1 0.6 1.5 1.7 1.6h0.5 0.7 1.3c0.6 0 1.4 0.1 2.1 0.1v36.8c-1 0-1.9 0.1-2.6 0.1s-1.2 0-1.4 0.1h-0.6c-1.2 0.1-1.7 0.6-1.7 1.6v1.8h17v-1.8c0-1-0.6-1.5-1.8-1.6zm-9.4-52.9c0.4 0.4 0.8 0.6 1.2 0.8 0.5 0.2 1 0.3 1.5 0.3s1-0.1 1.5-0.3 0.9-0.5 1.2-0.8c0.4-0.4 0.6-0.8 0.9-1.2 0.2-0.5 0.3-1 0.3-1.5s-0.1-1-0.3-1.5c-0.2-0.5-0.5-0.9-0.9-1.3-0.3-0.3-0.8-0.6-1.2-0.8-0.5-0.2-1-0.3-1.5-0.3s-1 0.1-1.5 0.3-0.9 0.5-1.2 0.8c-0.3 0.4-0.6 0.8-0.8 1.3s-0.3 1-0.3 1.5 0.1 1 0.3 1.5c0.2 0.4 0.4 0.8 0.8 1.2z" fill="#918F8F"/>
<path d="m527.3 113.7c1.9 0 3.6-0.4 5.4-1.1 1.7-0.8 3.1-1.7 4.2-3l-1.1-1.8c-0.2-0.3-0.5-0.4-0.7-0.4s-0.5 0.2-0.8 0.5-0.8 0.6-1.4 1-1.2 0.7-2 1-1.7 0.5-2.7 0.5c-0.8 0-1.6-0.1-2.4-0.4-0.7-0.3-1.4-0.7-1.9-1.2-0.5-0.6-1-1.3-1.3-2.1-0.3-0.9-0.5-1.9-0.5-3.1v-29.9h13.8v-3.1h-13.8v-16.8h-2c-0.3 0-0.6 0.1-0.8 0.3s-0.3 0.4-0.3 0.7l-1 15.7-7.5 0.5v1.6c0 0.3 0.1 0.6 0.3 0.8s0.5 0.3 0.8 0.3h6.3v29.9c0 3.4 0.8 6 2.5 7.6 1.6 1.7 4 2.5 6.9 2.5z" fill="#918F8F"/>
<path d="m558.4 110.3c-2.6 0-4.9-0.4-6.8-1.3-2-0.9-3.6-2.2-4.9-3.9s-2.3-3.7-2.9-6.1c-0.7-2.4-1-5-1-7.9s0.3-5.6 1-7.9c0.7-2.4 1.6-4.4 2.9-6.1s2.9-3 4.9-3.9 4.2-1.4 6.8-1.4 4.9 0.5 6.8 1.4 3.6 2.2 4.9 3.9 2.3 3.7 2.9 6.1c0.7 2.4 1 5 1 7.9s-0.3 5.6-1 7.9c-0.6 2.4-1.6 4.4-2.9 6.1s-2.9 3-4.9 3.9c-1.9 0.9-4.2 1.3-6.8 1.3zm0-41.8c-3.1 0-6 0.5-8.4 1.6-2.5 1.1-4.6 2.6-6.3 4.6s-3 4.3-3.9 7.1-1.3 5.9-1.3 9.3 0.5 6.5 1.3 9.3c0.9 2.8 2.2 5.1 3.9 7.1s3.8 3.5 6.3 4.5 5.3 1.6 8.4 1.6c3.2 0 6-0.5 8.4-1.6 2.5-1.1 4.6-2.6 6.3-4.5 1.7-2 3-4.3 3.9-7.1s1.3-5.9 1.3-9.3-0.4-6.5-1.3-9.3-2.2-5.1-3.9-7.1-3.8-3.5-6.3-4.6c-2.4-1-5.2-1.6-8.4-1.6z" fill="#918F8F"/>
<path d="m609.3 68.9c-1.1-0.3-2.3-0.4-3.7-0.4-3.4 0-6.3 1-8.7 3s-4.2 4.8-5.6 8.3l-0.3-9.2c0-0.5-0.2-0.9-0.4-1.1s-0.6-0.3-1.1-0.3h-8.5v1.8c0 1.1 0.7 1.5 1.8 1.6 0.5 0 1 0 4.6 0.2v36.8c-3.6 0.1-4.1 0.2-4.6 0.2-1.1 0.1-1.8 0.4-1.8 1.6v1.8h17v-1.8c0-1.1-0.7-1.5-1.7-1.6-0.6 0-1 0-4.6-0.2v-25c1.3-3.9 3-6.8 5.2-8.9 2.1-2.1 4.9-3.1 8.2-3.1 0.9 0 1.7 0.1 2.4 0.2s1.3 0.2 1.8 0.4c0.5 0.1 0.9 0.3 1.2 0.4s0.6 0.2 0.7 0.2c0.5 0 0.8-0.2 0.9-0.7l0.6-2.9c-1.2-0.6-2.3-1-3.4-1.3z" fill="#918F8F"/>
<path d="m644.4 95.7c-0.7-1.2-1.6-2.3-2.8-3.1-1.1-0.8-2.5-1.6-3.9-2.1-1.5-0.6-2.9-1.1-4.5-1.6-1.5-0.5-3-0.9-4.5-1.4-1.4-0.5-2.7-1-3.9-1.7-1.1-0.6-2.1-1.4-2.8-2.3s-1.1-2.1-1.1-3.4c0-1.1 0.3-2.2 0.8-3.2s1.2-1.9 2.2-2.7c0.9-0.8 2-1.4 3.3-1.8 1.3-0.5 2.8-0.7 4.3-0.7 2.3 0 4.6 0.4 7 1.1 0.1 1.1 0.1 2.1 0.2 3 0.1 1 0.1 1.7 0.2 2.3s0.1 0.9 0.1 1c0.1 1.4 0.7 2.1 1.9 2.1h2.1v-10.3c-4.6-1.6-8.5-2.3-11.6-2.3-2.2 0-4.2 0.3-6 1-1.8 0.6-3.3 1.5-4.6 2.6s-2.2 2.3-2.9 3.8c-0.7 1.4-1 2.9-1 4.5 0 1.8 0.4 3.3 1.1 4.6 0.7 1.2 1.6 2.3 2.8 3.1 1.1 0.9 2.4 1.6 3.9 2.1 1.4 0.6 2.9 1.1 4.5 1.5 1.5 0.5 3 0.9 4.5 1.4s2.7 1 3.9 1.7c1.1 0.7 2.1 1.5 2.8 2.5s1.1 2.2 1.1 3.6c0 1.3-0.3 2.6-0.7 3.8-0.5 1.2-1.2 2.2-2.1 3.1s-2.1 1.6-3.5 2.1-3 0.8-4.9 0.8c-3.3 0-6.2-0.5-8.6-1.4-0.1-1.1-0.1-2.1-0.2-3.1s-0.2-1.8-0.2-2.3c-0.1-0.6-0.1-0.9-0.1-1-0.1-1.4-0.7-2.1-1.9-2.1h-2.1v10.7c4.2 1.6 8.6 2.4 13 2.4 2.4 0 4.6-0.4 6.5-1.1s3.5-1.7 4.8-2.9 2.3-2.6 3-4.3c0.7-1.6 1-3.4 1-5.3s-0.4-3.4-1.1-4.7z" fill="#918F8F"/>
	<path d="m101.6 46.1l-43.2-24.9c-2.8-1.6-7.3-1.6-10.1 0l-18.2 10.5c-5.6 8.8-8.8 18.9-9.3 29.3 9.4-6.1 20.5-9.6 32.5-9.6s23.2 3.5 32.6 9.6c8.7 5.7 15.9 13.5 20.7 22.8v-29c0-3.1-2.2-7.1-5-8.7z" fill="#C61052"/>
	<path d="m58.4 138.4l43.2-25c2.8-1.6 5-5.5 5-8.7v-21c-4.8-9.2-12-17-20.7-22.7 0.6 11.2-1.9 22.6-7.9 33s-14.6 18.3-24.6 23.4c-9.3 4.7-19.7 7-30.1 6.6l25.1 14.5c2.7 1.5 7.2 1.5 10-0.1z" fill="#7A113F"/>
	<path d="m0 54.9l0.1 49.9c0 3.2 2.3 7.1 5.1 8.7l18.2 10.5c10.4 0.4 20.8-1.9 30-6.7-10-5.1-18.6-13-24.6-23.3-6-10.4-8.6-21.8-8-33 0.5-10.4 3.7-20.6 9.4-29.4l-25.2 14.5c-2.7 1.6-5 5.6-5 8.8z" fill="#49182D"/>
</svg>
